<svg xmlns="http://www.w3.org/2000/svg" width="72" height="33" viewBox="0 0 72 33">
    <g fill="none" fill-rule="nonzero">
        <path fill="#28AFC6" stroke="#FFF" stroke-linecap="round" stroke-linejoin="round" stroke-width=".536" d="M22.658 27.719l-2.05 2.047-1.699-1.698h-4.804l-1.7 1.698-2.05-2.047 2.548-2.546h7.206z"/>
        <path fill="#E56A17" stroke="#FFF" stroke-linecap="round" stroke-linejoin="round" stroke-width=".536" d="M18.91 28.068l1.698 1.698-2.168 2.164h-3.868l-2.167-2.164 1.7-1.698zM20.608 3.206l-1.699 1.698h-4.804l-1.7-1.698 2.167-2.165h3.868z"/>
        <path fill="#B57C30" stroke="#FFF" stroke-linecap="round" stroke-linejoin="round" stroke-width=".536" d="M7.807 7.798l2.548-2.545 2.547 2.545-2.547 2.544z"/>
        <path fill="#B23408" stroke="#FFF" stroke-linecap="round" stroke-linejoin="round" stroke-width=".536" d="M5.258 10.342l2.548-2.545 2.548 2.545-2.548 2.544z"/>
        <path fill="#28AFC6" stroke="#FFF" stroke-linecap="round" stroke-linejoin="round" stroke-width=".536" d="M7.807 12.887v7.197l-2.548 2.545-2.05-2.047 1.7-1.698v-4.799l-1.7-1.695 2.05-2.047z"/>
        <path fill="#E56A17" stroke="#FFF" stroke-linecap="round" stroke-linejoin="round" stroke-width=".536" d="M4.909 14.085v4.8l-1.7 1.697-2.168-2.166v-3.862l2.168-2.164z"/>
        <path fill="#282899" stroke="#FFF" stroke-linecap="round" stroke-linejoin="round" stroke-width=".536" d="M12.406 20.582l-2.05 2.047-2.55-2.545v-7.197l2.55-2.544 2.05 2.047-1.699 1.695v4.8z"/>
        <path fill="#28AFC6" stroke="#FFF" stroke-linecap="round" stroke-linejoin="round" stroke-width=".536" d="M14.572 14.554h3.867v3.861h-3.867z"/>
        <path fill="#E5D9A8" stroke="#FFF" stroke-linecap="round" stroke-linejoin="round" stroke-width=".536" d="M20.608 20.582l-1.7 1.695h-4.803l-1.699-1.695 2.166-2.166h3.868z"/>
        <path fill="#B57C30" stroke="#FFF" stroke-linecap="round" stroke-linejoin="round" stroke-width=".536" d="M25.205 25.173l-2.547 2.546-2.549-2.546.84-.837 1.709-1.707zM12.903 25.172v.001l-2.548 2.546-2.548-2.546 2.548-2.544z"/>
        <path fill="#B23408" stroke="#FFF" stroke-linecap="round" stroke-linejoin="round" stroke-width=".536" d="M5.259 22.63l2.547-2.545 2.548 2.544-2.548 2.545z"/>
        <path fill="#28AFC6" stroke="#FFF" stroke-linecap="round" stroke-linejoin="round" stroke-width=".536" d="M22.658 5.253l-2.549 2.544h-7.206l-2.548-2.544 2.05-2.047 1.7 1.698h4.804l1.699-1.698z"/>
        <path fill="#2C2785" stroke="#FFF" stroke-linecap="round" stroke-linejoin="round" stroke-width=".536" d="M22.658 10.343l-2.05 2.047-1.7-1.695h-4.803l-1.7 1.695-2.05-2.047 2.548-2.546h7.206z"/>
        <path fill="#B57C30" stroke="#FFF" stroke-linecap="round" stroke-linejoin="round" stroke-width=".536" d="M20.11 7.797l2.548-2.544 2.548 2.544-2.548 2.544z"/>
        <path fill="#B23408" stroke="#FFF" stroke-linecap="round" stroke-linejoin="round" stroke-width=".536" d="M22.658 10.342l2.547-2.544 2.548 2.544-2.548 2.545z"/>
        <path fill="#28AFC6" stroke="#FFF" stroke-linecap="round" stroke-linejoin="round" stroke-width=".536" d="M28.104 18.884l1.7 1.698-2.05 2.047-2.549-2.545v-7.197l2.55-2.544 2.05 2.047-1.7 1.695z"/>
        <path fill="#B23408" stroke="#FFF" stroke-linecap="round" stroke-linejoin="round" stroke-width=".536" d="M22.658 22.629l2.548-2.544 2.548 2.544-2.548 2.544z"/>
        <path fill="#E56A17" stroke="#FFF" stroke-linecap="round" stroke-linejoin="round" stroke-width=".536" d="M31.971 14.554v3.862l-2.167 2.166-1.7-1.698v-4.799l1.7-1.695z"/>
        <path fill="#CECC97" stroke="#FFF" stroke-linecap="round" stroke-linejoin="round" stroke-width=".536" d="M14.572 14.554v3.862l-2.166 2.166-1.699-1.698v-4.799l1.698-1.695z"/>
        <path fill="#E5D9A8" stroke="#FFF" stroke-linecap="round" stroke-linejoin="round" stroke-width=".536" d="M20.608 12.39l-2.168 2.164h-3.868l-2.167-2.164 1.7-1.695h4.803z"/>
        <path fill="#2C2785" stroke="#FFF" stroke-linecap="round" stroke-linejoin="round" stroke-width=".536" d="M22.658 22.629l-1.71 1.707-.839.837h-7.206l-2.548-2.544 2.051-2.047 1.7 1.695h4.802l1.7-1.695z"/>
        <path fill="#282899" stroke="#FFF" stroke-linecap="round" stroke-linejoin="round" stroke-width=".536" d="M25.205 12.887v7.197l-2.547 2.545-2.05-2.047 1.698-1.698v-4.799l-1.698-1.695 2.05-2.047z"/>
        <path fill="#CECC97" stroke="#FFF" stroke-linecap="round" stroke-linejoin="round" stroke-width=".536" d="M22.306 14.085v4.8l-1.698 1.697-2.168-2.166v-3.862l2.168-2.164z"/>
        <path fill="#FFF" d="M37.615 7.025h4.31c2.04 0 3.525 1.309 3.525 3.184 0 1.874-1.485 3.183-3.525 3.183h-2v2.9h-2.31V7.026zm4.093 4.262c.797 0 1.365-.431 1.365-1.078s-.565-1.08-1.365-1.08h-1.782v2.158h1.782zM46.53 6.862h2.297v9.43H46.53zM56.797 12.151v4.142h-2.202V15.7a2.782 2.782 0 0 1-1.932.755c-1.486 0-2.66-.902-2.66-2.226 0-1.362 1.309-2.32 2.957-2.32a4.56 4.56 0 0 1 1.635.338v-.095c0-.742-.564-1.282-1.527-1.282-.661 0-1.161.203-1.756.513l-.716-1.43c.973-.485 1.972-.795 3.053-.795 1.796-.001 3.148 1.132 3.148 2.993zm-2.202 2.05v-.741a3.842 3.842 0 0 0-1.31-.226c-.622 0-1.109.391-1.109.93 0 .54.433.89 1.041.89.675-.003 1.287-.326 1.378-.853zM58.012 14.7l3.296-3.467h-3.201V9.317h6.187l-.014 1.592-3.31 3.467h3.354v1.917h-6.312zM71.953 12.151v4.142H69.75V15.7c-.52.49-1.21.76-1.926.755-1.486 0-2.661-.902-2.661-2.226 0-1.362 1.31-2.32 2.957-2.32a4.549 4.549 0 0 1 1.635.338v-.095c0-.742-.565-1.282-1.526-1.282-.662 0-1.162.203-1.757.513l-.715-1.43c.973-.485 1.972-.795 3.053-.795 1.791-.001 3.143 1.132 3.143 2.993zm-2.203 2.05v-.741a3.842 3.842 0 0 0-1.309-.226c-.622 0-1.108.391-1.108.93 0 .54.432.89 1.04.89.675-.003 1.284-.326 1.377-.853zM37.615 19.349h3.09c1.461 0 2.527.938 2.527 2.281 0 1.344-1.066 2.283-2.527 2.283H39.27v2.079h-1.656v-6.643zm2.935 3.056c.571 0 .978-.31.978-.775 0-.464-.407-.773-.978-.773h-1.279v1.548h1.279zM48.906 20.992v5H47.27v-.57c-.31.425-.842.686-1.468.686-1.074 0-1.84-.803-1.84-1.934v-3.182h1.57v2.818c0 .552.348.938.852.938a.86.86 0 0 0 .881-.87l.01.028v-2.914h1.631zm-2.47-.551h-1.083l1.104-1.548 1.432.256-1.452 1.292zM55.579 23.487c0 1.539-.95 2.62-2.296 2.62a2.087 2.087 0 0 1-1.636-.758v.638H50v-6.764h1.647v2.406a2.092 2.092 0 0 1 1.636-.754c1.346.001 2.296 1.084 2.296 2.612zm-1.58 0c0-.725-.504-1.247-1.21-1.247-.678 0-1.143.522-1.143 1.247 0 .725.464 1.258 1.142 1.258.708 0 1.211-.523 1.211-1.258zM56.478 19.233h1.647v6.763h-1.647zM59.229 19.512a.869.869 0 0 1 .871-.85.862.862 0 0 1 0 1.721.874.874 0 0 1-.871-.87zm.038 1.48h1.637v5h-1.637v-5zM61.785 23.487c0-1.422 1.278-2.61 2.789-2.61a2.649 2.649 0 0 1 2.024.888l-1.085.902a1.377 1.377 0 0 0-.948-.425 1.24 1.24 0 0 0-1.201 1.24c0 .687.552 1.267 1.2 1.267.373-.01.726-.17.978-.445l1.085.89a2.678 2.678 0 0 1-2.077.914c-1.497 0-2.765-1.199-2.765-2.621zM71.953 23.024v2.968h-1.58v-.425a1.99 1.99 0 0 1-1.386.54c-1.065 0-1.907-.646-1.907-1.594 0-.978.939-1.664 2.12-1.664.404.008.802.091 1.175.246v-.068c0-.532-.408-.919-1.095-.919-.474 0-.832.144-1.259.368l-.514-1.026c.698-.348 1.415-.57 2.19-.57 1.287-.004 2.256.809 2.256 2.144zm-1.58 1.465v-.532a2.755 2.755 0 0 0-.94-.165c-.446 0-.79.281-.79.668 0 .386.31.638.746.638.482.004.918-.228.986-.605l-.003-.004z"/>
    </g>
</svg>
