<svg xmlns="http://www.w3.org/2000/svg" width="117" height="30" viewBox="0 0 117 30">
    <g fill="none" fill-rule="nonzero">
        <path fill="#FFF" d="M71.668 6.772l-.46-1.135h-2.122l-.46 1.135h-1.127l2.153-5.09h1.017l2.153 5.09h-1.154zM70.15 3.018l-.666 1.64h1.332l-.666-1.64zM75.837 6.86c-1.564 0-2.636-1.103-2.636-2.601v-.014c0-1.438 1.113-2.614 2.632-2.614.903 0 1.45.243 1.97.694l-.698.845c-.387-.326-.73-.515-1.313-.515-.803 0-1.442.717-1.442 1.576v.014c0 .923.63 1.603 1.52 1.603.4 0 .761-.1 1.04-.303v-.721h-1.114v-.96h2.18V6.06a3.222 3.222 0 0 1-2.139.8zM79.185 6.772V1.718h3.786v.988h-2.69V3.73h2.367v.988H80.28V5.78h2.723v.988zM87.651 6.772l-2.43-3.212v3.216H84.13V1.718h1.017l2.354 3.115V1.718h1.09v5.054zM92.29 6.86c-1.478 0-2.572-1.15-2.572-2.601v-.014c0-1.438 1.076-2.614 2.618-2.614.949 0 1.514.317 1.98.78l-.703.819c-.388-.354-.78-.57-1.282-.57-.848 0-1.455.708-1.455 1.576v.014c0 .868.593 1.59 1.455 1.59.575 0 .926-.23 1.319-.593l.702.716c-.52.552-1.095.896-2.062.896zM95.424 6.772V1.718h1.104v5.054zM101.664 6.772l-.46-1.135h-2.122l-.46 1.135h-1.127l2.153-5.09h1.017l2.153 5.09h-1.154zm-1.523-3.754l-.666 1.64h1.331l-.665-1.64zM69.894 13.93h-1.957V8.876h1.957c1.578 0 2.668 1.089 2.668 2.513v.014c-.004 1.42-1.094 2.527-2.668 2.527zm1.51-2.527c0-.896-.612-1.526-1.515-1.526h-.853v3.046h.853c.903 0 1.515-.615 1.515-1.511v-.01zM73.735 13.93V8.876h1.103v5.054zM78.652 14.017c-1.565 0-2.637-1.107-2.637-2.6v-.014c0-1.438 1.113-2.614 2.632-2.614.903 0 1.45.243 1.97.693l-.693.846c-.387-.326-.73-.515-1.313-.515-.803 0-1.442.717-1.442 1.576v.014c0 .923.63 1.603 1.52 1.603.4 0 .761-.1 1.04-.303v-.721h-1.114v-.96h2.18v2.195c-.592.515-1.354.8-2.143.8zM82.05 13.93V8.876h1.104v5.054zM86.826 9.9v4.03h-1.104V9.9h-1.528V8.876h4.155V9.9zM92.436 13.93l-.46-1.135h-2.121l-.461 1.135h-1.127l2.153-5.09h1.017l2.153 5.09h-1.154zm-1.523-3.754l-.666 1.64h1.332l-.666-1.64zM94.507 13.93V8.876h1.104v4.043h2.504v1.01zM103.338 13.93h-1.957V8.876h1.957c1.578 0 2.668 1.089 2.668 2.513v.014c0 1.42-1.09 2.527-2.668 2.527zm1.514-2.527c0-.896-.61-1.526-1.514-1.526h-.853v3.046h.853c.903 0 1.514-.615 1.514-1.511v-.01zM107.133 13.93V8.876h3.786v.988h-2.687v1.024h2.368v.988h-2.368v1.061h2.724v.993h-3.823zM67.983 21.087v-5.053h1.103v5.053zM74.008 21.087l-2.431-3.216v3.216h-1.09v-5.053h1.017l2.354 3.115v-3.115h1.09v5.053zM79.815 21.087l-2.431-3.216v3.216h-1.09v-5.053h1.021l2.354 3.115v-3.115h1.09v5.053zM84.54 21.17c-1.55 0-2.659-1.162-2.659-2.6v-.01c0-1.437 1.127-2.614 2.673-2.614 1.547 0 2.66 1.163 2.66 2.596v.018c0 1.434-1.127 2.61-2.673 2.61zm1.52-2.614c0-.868-.63-1.59-1.52-1.59-.889 0-1.505.708-1.505 1.576v.018c0 .869.63 1.59 1.52 1.59.889 0 1.504-.707 1.504-1.576v-.018zM90.594 21.12h-.977l-2.03-5.09h1.218l1.314 3.56 1.314-3.56h1.19zM96.56 21.087l-.46-1.134h-2.122l-.46 1.134H92.39l2.153-5.09h1.017l2.153 5.09H96.56zm-1.524-3.758l-.666 1.64h1.332l-.666-1.64zM100.66 21.17c-1.477 0-2.572-1.149-2.572-2.6v-.01c0-1.437 1.076-2.614 2.618-2.614.949 0 1.515.317 1.98.781l-.703.818c-.387-.354-.78-.57-1.281-.57-.844 0-1.456.708-1.456 1.576v.014c0 .868.593 1.59 1.456 1.59.574 0 .926-.23 1.318-.593l.702.717c-.52.546-1.094.891-2.061.891zM103.79 21.087v-5.053h1.104v5.053zM108.734 21.17c-1.546 0-2.66-1.162-2.66-2.6v-.01c0-1.437 1.128-2.614 2.674-2.614s2.66 1.163 2.66 2.6v.014c0 1.434-1.127 2.61-2.674 2.61zm1.52-2.614c0-.868-.63-1.59-1.52-1.59s-1.505.708-1.505 1.576v.018c0 .869.63 1.59 1.519 1.59.89 0 1.505-.707 1.505-1.576v-.018zm-1.903-2.922l.812-1.277.94.413-.917.869-.835-.005zM116.05 21.087l-2.426-3.216v3.216h-1.09v-5.053h1.017l2.354 3.115v-3.115h1.09v5.053zM69.88 26.724h-.84v1.516h-1.103v-5.053h2.053c1.195 0 1.92.717 1.92 1.746v.013c-.005 1.172-.908 1.778-2.03 1.778zm.912-1.768c0-.497-.342-.768-.898-.768h-.853v1.544h.876c.552 0 .875-.33.875-.767v-.01zM74.962 28.323c-1.35 0-2.172-.758-2.172-2.246v-2.89h1.104v2.862c0 .822.41 1.25 1.081 1.25.67 0 1.081-.414 1.081-1.213V23.19h1.104v2.853c.005 1.526-.848 2.28-2.198 2.28zm-.48-5.5l.813-1.276.94.413-.918.868-.834-.004zM80.818 28.24h-2.385v-5.053h2.33c1.027 0 1.656.514 1.656 1.305v.013c0 .57-.3.887-.66 1.09.578.224.939.564.939 1.24v.013c0 .933-.744 1.392-1.88 1.392zm.502-3.56c0-.33-.26-.52-.725-.52h-1.09v1.071h1.017c.488 0 .794-.16.794-.533l.004-.018zm.278 2.021c0-.34-.25-.55-.816-.55h-1.277v1.11h1.313c.488 0 .78-.174.78-.55v-.01zM83.751 28.24v-5.053h1.104v4.043h2.504v1.01zM88.386 28.24v-5.053h1.104v5.053zM93.24 28.328c-1.479 0-2.574-1.149-2.574-2.6v-.014c0-1.438 1.077-2.614 2.619-2.614.949 0 1.514.317 1.98.78l-.703.814c-.388-.354-.78-.57-1.282-.57-.848 0-1.455.708-1.455 1.576v.014c0 .868.593 1.59 1.455 1.59.575 0 .926-.23 1.318-.593l.703.716c-.52.556-1.095.9-2.062.9zM100.058 28.24l-.46-1.134h-2.121l-.461 1.134h-1.127l2.153-5.09h1.017l2.153 5.09h-1.154zm-1.523-3.753l-.666 1.64h1.332l-.666-1.64zM45.832 15.436V6.56c0-.013 0-.032-.016-.045v8.921h.016z"/>
        <path fill="#FFF" d="M61.61 9.16C61.464 4.223 57.277.203 52.273.203h-7.941c-.98 0-1.78.804-1.78 1.792v8.095c.01.041.024.087.033.128.451 1.944.611 3.942.474 5.932a19.165 19.165 0 0 1-.474 3.119v10.37s2.627 1.01 3.184-.378V18.67c1.966.005 6.559.005 6.668.005 5.073-.004 9.178-4.148 9.173-9.257.005-.083 0-.17 0-.257zm-4.89 4.457a5.91 5.91 0 0 1-4.278 1.829c-.114 0-4.707-.005-6.669-.005h-.004V3.431h6.509c3.284 0 6.03 2.61 6.126 5.822a5.985 5.985 0 0 1-1.683 4.364z"/>
        <path fill="#666" d="M39.291 6.11c-.25-.33-.515-.652-.802-.965v.056c.282.312.547.634.802.964V6.11z"/>
        <path fill="#FFF" d="M40.774 8.472c-.15-.304-.32-.602-.493-.9-.155-.263-.32-.52-.492-.777-.16-.235-.329-.464-.498-.69v.051c-.25-.33-.52-.652-.802-.965a12.705 12.705 0 0 0-.776-.794v4.791a11.395 11.395 0 0 1 1.45 5.587c0 6.106-4.793 11.127-10.87 11.61l.078.156.917 1.879.41.845.074.152a14.821 14.821 0 0 0 4.283-1.37c.128-.064.25-.128.379-.192.31-.166.62-.345.916-.529l.073-.046a15.028 15.028 0 0 0 4.361-4.222 13.643 13.643 0 0 0 .985-1.672 14.18 14.18 0 0 0 1.483-5.251 14.414 14.414 0 0 0-1.478-7.663zM28.645 29.398l-1.4-2.88-.041-.088-.201-.413-.25-.515-4.69-9.831v6.018l1.542 3.11.305.63.155.321a.718.718 0 0 1 .037.106l.096.198.178.367 1.473 3.037.018.037a.2.2 0 0 0 .028.032c.095.009.196.023.291.032h2.427a.112.112 0 0 0 .087-.041l-.055-.12zM16.265 3.515l.005-.005-.844-1.737L14.61.106a.125.125 0 0 0-.041-.055.141.141 0 0 0-.083-.042.134.134 0 0 0-.045-.009c-.018 0-.032.005-.05.01a.182.182 0 0 0-.082.045.216.216 0 0 0-.041.055L.013 29.366a.132.132 0 0 0 .005.124c.023.037.064.06.11.06h2.066c.378 0 .72-.216.889-.556l1.56-3.207c.005-.014.01-.027.018-.041l8.106-16.64c.146-.4.315-.79.492-1.176.023-.046.042-.088.06-.134a17.042 17.042 0 0 1 .337-.661l.032-.06c.078-.142.155-.29.237-.432l.078-.133c.096-.16.192-.317.292-.473l3.23 6.505v-6.39l-1.26-2.637z"/>
        <path fill="#96B737" d="M37.786 18.611v-.032a10.894 10.894 0 0 1-2.431 3.749c-.205.206-.42.4-.639.588v.046a10.928 10.928 0 0 0 3.07-4.351z"/>
        <path fill="#66A13C" d="M34.648 28.953v.574a.07.07 0 0 0 .068.069h2.495a.51.51 0 0 0 .507-.51v-2.141a15.938 15.938 0 0 1-3.07 2.008zM37.53.106h-2.695c-.1 0-.187.082-.187.183v22.627a10.663 10.663 0 0 0 3.065-4.25V.29a.184.184 0 0 0-.182-.183z"/>
        <path fill="#FFF" d="M27.008.106h-8.33a.34.34 0 0 0-.342.335v28.323a.68.68 0 0 0 .685.676l1.35.004 4.356.01-1.464-3.02h-1.861V3.166s5.637-.036 5.925-.036a11.859 11.859 0 0 1 7.312 2.503v-3.51A15.44 15.44 0 0 0 27.008.107z"/>
    </g>
</svg>
