<svg xmlns="http://www.w3.org/2000/svg" width="100" height="45" viewBox="0 0 100 45">
    <g fill="none" fill-rule="nonzero">
        <path fill="#28AFC6" stroke="#FFF" stroke-linecap="round" stroke-linejoin="round" stroke-width=".745" d="M31.199 38.061l-2.858 2.84-2.37-2.355h-6.698l-2.37 2.355-2.858-2.84 3.552-3.53h10.048z"/>
        <path fill="#E56A17" stroke="#FFF" stroke-linecap="round" stroke-linejoin="round" stroke-width=".745" d="M25.972 38.546l2.369 2.355-3.024 3.002h-5.392l-3.022-3.002 2.37-2.355zM28.34 4.06l-2.368 2.355h-6.699l-2.37-2.355 3.022-3.004h5.392z"/>
        <path fill="#B57C30" stroke="#FFF" stroke-linecap="round" stroke-linejoin="round" stroke-width=".745" d="M10.491 10.429l3.553-3.53 3.552 3.53-3.552 3.53z"/>
        <path fill="#B23408" stroke="#FFF" stroke-linecap="round" stroke-linejoin="round" stroke-width=".745" d="M6.937 13.958l3.553-3.53 3.552 3.53-3.552 3.529z"/>
        <path fill="#28AFC6" stroke="#FFF" stroke-linecap="round" stroke-linejoin="round" stroke-width=".745" d="M10.49 17.489v9.982L6.939 31l-2.858-2.84 2.37-2.354v-6.656l-2.37-2.352 2.858-2.84z"/>
        <path fill="#E56A17" stroke="#FFF" stroke-linecap="round" stroke-linejoin="round" stroke-width=".745" d="M6.45 19.15v6.657l-2.37 2.355-3.023-3.004v-5.357L4.08 16.8z"/>
        <path fill="#282899" stroke="#FFF" stroke-linecap="round" stroke-linejoin="round" stroke-width=".745" d="M16.905 28.162l-2.86 2.84-3.554-3.531v-9.982l3.554-3.53 2.858 2.84-2.367 2.352v6.656z"/>
        <path fill="#28AFC6" stroke="#FFF" stroke-linecap="round" stroke-linejoin="round" stroke-width=".745" d="M19.925 19.801h5.392v5.355h-5.392z"/>
        <path fill="#E5D9A8" stroke="#FFF" stroke-linecap="round" stroke-linejoin="round" stroke-width=".745" d="M28.34 28.162l-2.37 2.352h-6.697l-2.368-2.352 3.02-3.004v-.001h5.392v.001z"/>
        <path fill="#B57C30" stroke="#FFF" stroke-linecap="round" stroke-linejoin="round" stroke-width=".745" d="M34.751 34.53L31.2 38.062l-3.554-3.53 1.171-1.162L31.199 31zM17.597 34.53l-3.552 3.531-3.554-3.53L14.045 31z"/>
        <path fill="#B23408" stroke="#FFF" stroke-linecap="round" stroke-linejoin="round" stroke-width=".745" d="M6.938 31.002l3.553-3.53 3.552 3.53-3.552 3.53z"/>
        <path fill="#28AFC6" stroke="#FFF" stroke-linecap="round" stroke-linejoin="round" stroke-width=".745" d="M31.199 6.9l-3.554 3.529H17.597l-3.552-3.53 2.858-2.839 2.37 2.355h6.699L28.34 4.06z"/>
        <path fill="#2C2785" stroke="#FFF" stroke-linecap="round" stroke-linejoin="round" stroke-width=".745" d="M31.199 13.96l-2.858 2.839-2.37-2.352h-6.698l-2.37 2.352-2.858-2.84 3.552-3.53h10.048z"/>
        <path fill="#B57C30" stroke="#FFF" stroke-linecap="round" stroke-linejoin="round" stroke-width=".745" d="M27.646 10.428l3.553-3.53 3.552 3.53-3.552 3.53z"/>
        <path fill="#B23408" stroke="#FFF" stroke-linecap="round" stroke-linejoin="round" stroke-width=".745" d="M31.199 13.959l3.552-3.53 3.553 3.53-3.553 3.529z"/>
        <path fill="#28AFC6" stroke="#FFF" stroke-linecap="round" stroke-linejoin="round" stroke-width=".745" d="M38.793 25.807l2.37 2.355-2.858 2.84-3.554-3.531v-9.982l3.554-3.53 2.858 2.84-2.37 2.352z"/>
        <path fill="#B23408" stroke="#FFF" stroke-linecap="round" stroke-linejoin="round" stroke-width=".745" d="M31.2 31.002l3.552-3.53 3.552 3.53-3.552 3.529z"/>
        <path fill="#E56A17" stroke="#FFF" stroke-linecap="round" stroke-linejoin="round" stroke-width=".745" d="M44.185 19.801v5.357l-3.022 3.004-2.37-2.355v-6.656l2.37-2.352z"/>
        <path fill="#CECC97" stroke="#FFF" stroke-linecap="round" stroke-linejoin="round" stroke-width=".745" d="M19.925 19.801v5.357l-3.02 3.004-2.37-2.355v-6.656l2.368-2.352z"/>
        <path fill="#E5D9A8" stroke="#FFF" stroke-linecap="round" stroke-linejoin="round" stroke-width=".745" d="M28.34 16.799l-3.023 3.002h-5.392L16.903 16.8l2.37-2.352h6.697z"/>
        <path fill="#2C2785" stroke="#FFF" stroke-linecap="round" stroke-linejoin="round" stroke-width=".745" d="M31.199 31.001l-2.383 2.368-1.171 1.162H17.597v-.002l-3.552-3.528 2.86-2.84 2.368 2.353h6.697l2.37-2.352z"/>
        <path fill="#282899" stroke="#FFF" stroke-linecap="round" stroke-linejoin="round" stroke-width=".745" d="M34.751 17.489v9.982L31.2 31l-2.858-2.84 2.367-2.354v-6.656l-2.367-2.352 2.858-2.84z"/>
        <path fill="#CECC97" stroke="#FFF" stroke-linecap="round" stroke-linejoin="round" stroke-width=".745" d="M30.708 19.15v6.657l-2.367 2.355-3.024-3.004v-5.357l3.024-3.002z"/>
        <path fill="#898D8D" d="M52.055 9.358h6.01c2.843 0 4.915 1.815 4.915 4.415s-2.072 4.416-4.916 4.416h-2.787v4.023h-3.222V9.358zm5.707 5.912c1.111 0 1.903-.6 1.903-1.497 0-.897-.787-1.496-1.903-1.496h-2.485v2.993h2.485zM64.486 9.13h3.203v13.08h-3.203zM78.8 16.467v5.745h-3.068v-.822a3.89 3.89 0 0 1-2.695 1.047c-2.071 0-3.71-1.25-3.71-3.088 0-1.889 1.826-3.218 4.124-3.218a6.387 6.387 0 0 1 2.28.47v-.132c0-1.029-.786-1.778-2.129-1.778-.922 0-1.62.282-2.449.712l-.998-1.983c1.357-.674 2.75-1.104 4.258-1.104 2.504-.002 4.388 1.57 4.388 4.151zm-3.068 2.845v-1.03a5.383 5.383 0 0 0-1.828-.312c-.867 0-1.545.543-1.545 1.29 0 .748.603 1.235 1.45 1.235.942-.004 1.795-.453 1.923-1.183zM80.496 20.004l4.596-4.81h-4.464v-2.657h8.627l-.02 2.207-4.614 4.81h4.676v2.658h-8.801zM99.934 16.467v5.745h-3.07v-.822a3.884 3.884 0 0 1-2.688 1.047c-2.07 0-3.71-1.25-3.71-3.088 0-1.889 1.826-3.218 4.124-3.218a6.371 6.371 0 0 1 2.28.47v-.132c0-1.029-.788-1.778-2.128-1.778-.923 0-1.62.282-2.45.712l-.997-1.983c1.356-.674 2.75-1.104 4.257-1.104 2.498-.002 4.382 1.57 4.382 4.151zm-3.07 2.845v-1.03a5.383 5.383 0 0 0-1.827-.312c-.867 0-1.545.543-1.545 1.29 0 .748.603 1.235 1.451 1.235.941-.004 1.79-.453 1.92-1.183zM52.055 26.451h4.308c2.038 0 3.524 1.301 3.524 3.165s-1.486 3.166-3.524 3.166h-1.999v2.884h-2.309V26.45zm4.092 4.24c.797 0 1.363-.43 1.363-1.075 0-.644-.566-1.073-1.363-1.073h-1.783v2.147h1.783zM67.799 28.731v6.935h-2.282v-.791c-.431.59-1.174.952-2.046.952-1.499 0-2.566-1.113-2.566-2.682v-4.414h2.188v3.91c0 .764.486 1.3 1.188 1.3.326.009.642-.115.874-.343.232-.228.36-.54.356-.864l.012.04V28.73H67.8zm-3.444-.765h-1.51l1.539-2.146 1.997.355-2.026 1.791zM77.103 32.191c0 2.135-1.324 3.636-3.202 3.636a2.916 2.916 0 0 1-2.28-1.052v.885h-2.297v-9.382h2.297v3.337a2.923 2.923 0 0 1 2.28-1.047c1.878.002 3.202 1.505 3.202 3.623zm-2.204 0c0-1.005-.702-1.729-1.687-1.729-.945 0-1.593.724-1.593 1.73 0 1.005.647 1.744 1.593 1.744.987 0 1.689-.725 1.689-1.745h-.002zM78.357 26.29h2.296v9.382h-2.296zM82.193 26.678a1.208 1.208 0 0 1 1.215-1.179c.646.023 1.159.55 1.159 1.194 0 .643-.513 1.17-1.16 1.194a1.216 1.216 0 0 1-1.214-1.209zm.053 2.053h2.282v6.935h-2.282V28.73zM85.756 32.191c0-1.971 1.783-3.621 3.89-3.621a3.702 3.702 0 0 1 2.821 1.234l-1.512 1.25a1.924 1.924 0 0 0-1.322-.589 1.725 1.725 0 0 0-1.675 1.72c0 .952.77 1.758 1.675 1.758a1.93 1.93 0 0 0 1.363-.618l1.512 1.234a3.743 3.743 0 0 1-2.896 1.268c-2.087 0-3.856-1.662-3.856-3.636zM99.934 31.549v4.117H97.73v-.59a2.782 2.782 0 0 1-1.93.75c-1.487 0-2.66-.897-2.66-2.212 0-1.355 1.309-2.308 2.957-2.308a4.536 4.536 0 0 1 1.637.341v-.094c0-.738-.569-1.274-1.527-1.274-.661 0-1.16.2-1.755.51l-.716-1.423c.972-.483 1.972-.791 3.052-.791 1.795-.005 3.146 1.122 3.146 2.974zM97.73 33.58v-.738a3.86 3.86 0 0 0-1.31-.228c-.62 0-1.1.39-1.1.926s.432.885 1.04.885c.672.006 1.28-.316 1.374-.838l-.004-.007z"/>
    </g>
</svg>
